<?xml version="1.0" encoding="iso-8859-1"?>
<!-- Generator: Adobe Illustrator 18.0.0, SVG Export Plug-In . SVG Version: 6.00 Build 0)  -->
<!DOCTYPE svg PUBLIC "-//W3C//DTD SVG 1.1//EN" "http://www.w3.org/Graphics/SVG/1.1/DTD/svg11.dtd">
<svg version="1.1" id="Capa_1" xmlns="http://www.w3.org/2000/svg" xmlns:xlink="http://www.w3.org/1999/xlink" x="0px" y="0px"
	 viewBox="0 0 512 512" style="enable-background:new 0 0 512 512;" xml:space="preserve">
<path d="M480,480V224c0-17.672-14.327-32-32-32h-16V32c8.837,0,16-7.164,16-16s-7.163-16-16-16H304c-8.837,0-16,7.164-16,16
	s7.163,16,16,16v160h-16h-64h-16V32c8.837,0,16-7.164,16-16s-7.163-16-16-16H80c-8.837,0-16,7.164-16,16s7.163,16,16,16v160H64
	c-17.673,0-32,14.328-32,32v256c-8.837,0-16,7.164-16,16s7.163,16,16,16h192c8.837,0,16-7.164,16-16s-7.163-16-16-16V352h64v128
	c-8.837,0-16,7.164-16,16s7.163,16,16,16h192c8.837,0,16-7.164,16-16S488.837,480,480,480z M224,288v-32h64v32H224z"/>
<g>
</g>
<g>
</g>
<g>
</g>
<g>
</g>
<g>
</g>
<g>
</g>
<g>
</g>
<g>
</g>
<g>
</g>
<g>
</g>
<g>
</g>
<g>
</g>
<g>
</g>
<g>
</g>
<g>
</g>
</svg>
