<?xml version="1.0" encoding="iso-8859-1"?>
<!-- Generator: Adobe Illustrator 18.0.0, SVG Export Plug-In . SVG Version: 6.00 Build 0)  -->
<!DOCTYPE svg PUBLIC "-//W3C//DTD SVG 1.1//EN" "http://www.w3.org/Graphics/SVG/1.1/DTD/svg11.dtd">
<svg version="1.1" id="Capa_1" xmlns="http://www.w3.org/2000/svg" xmlns:xlink="http://www.w3.org/1999/xlink" x="0px" y="0px"
	 viewBox="0 0 512 512" style="enable-background:new 0 0 512 512;" xml:space="preserve">
<g>
	<path d="M480,112h-96V48c0-17.672-14.328-32-32-32H160c-17.672,0-32,14.328-32,32v64H32c-17.594,0-32,14.406-32,32v96h192
		c0-17.672,14.327-32,32-32h64c17.673,0,32,14.328,32,32h192v-96C512,126.406,497.594,112,480,112z M192,112V80h128v32H192z"/>
	<path d="M320,304c0,17.672-14.327,32-32,32h-64c-17.673,0-32-14.328-32-32v-32H0v192c0,17.594,14.406,32,32,32h448
		c17.594,0,32-14.406,32-32V272H320V304z"/>
	<rect x="224" y="240" width="64" height="64"/>
</g>
<g>
</g>
<g>
</g>
<g>
</g>
<g>
</g>
<g>
</g>
<g>
</g>
<g>
</g>
<g>
</g>
<g>
</g>
<g>
</g>
<g>
</g>
<g>
</g>
<g>
</g>
<g>
</g>
<g>
</g>
</svg>
