<?xml version="1.0" encoding="iso-8859-1"?>
<!-- Generator: Adobe Illustrator 18.0.0, SVG Export Plug-In . SVG Version: 6.00 Build 0)  -->
<!DOCTYPE svg PUBLIC "-//W3C//DTD SVG 1.1//EN" "http://www.w3.org/Graphics/SVG/1.1/DTD/svg11.dtd">
<svg version="1.1" id="Capa_1" xmlns="http://www.w3.org/2000/svg" xmlns:xlink="http://www.w3.org/1999/xlink" x="0px" y="0px"
	 viewBox="0 0 512 512" style="enable-background:new 0 0 512 512;" xml:space="preserve">
<g>
	<path d="M512,112V48c0-17.672-14.326-32-32-32H32C14.327,16,0,30.328,0,48v64H512z M176,48c8.837,0,16,7.164,16,16s-7.163,16-16,16
		c-8.836,0-16-7.164-16-16S167.164,48,176,48z M112,48c8.837,0,16,7.164,16,16s-7.163,16-16,16c-8.836,0-16-7.164-16-16
		S103.164,48,112,48z M48,48c8.837,0,16,7.164,16,16s-7.163,16-16,16c-8.836,0-16-7.164-16-16S39.164,48,48,48z"/>
	<path d="M256,256c-35.289,0-64,28.711-64,64s28.711,64,64,64s64-28.711,64-64S291.289,256,256,256z M256,352
		c-17.673,0-32-14.328-32-32s14.327-32,32-32c17.674,0,32,14.328,32,32S273.674,352,256,352z"/>
	<path d="M0,144v320c0,17.672,14.327,32,32,32h448c17.674,0,32-14.328,32-32V144H0z M368,336h-17.445
		c-2.456,14.551-8.158,27.984-16.393,39.539l12.346,12.344c6.25,6.25,6.25,16.375,0,22.625c-3.125,3.125-7.219,4.688-11.313,4.688
		c-4.094,0-8.188-1.563-11.313-4.688l-12.346-12.344c-11.555,8.234-24.987,13.934-39.537,16.391V432c0,8.836-7.164,16-16,16
		s-16-7.164-16-16v-17.445c-14.55-2.457-27.982-8.156-39.537-16.391l-12.346,12.344c-3.125,3.125-7.219,4.688-11.313,4.688
		c-4.094,0-8.188-1.563-11.313-4.688c-6.25-6.25-6.25-16.375,0-22.625l12.346-12.344c-8.234-11.555-13.937-24.988-16.393-39.539H144
		c-8.836,0-16-7.164-16-16s7.164-16,16-16h17.445c2.456-14.551,8.158-27.984,16.393-39.539l-12.346-12.344
		c-6.25-6.25-6.25-16.375,0-22.625s16.375-6.25,22.625,0l12.346,12.344c11.555-8.234,24.987-13.934,39.537-16.391V208
		c0-8.836,7.164-16,16-16s16,7.164,16,16v17.445c14.55,2.457,27.982,8.156,39.537,16.391l12.346-12.344
		c6.25-6.25,16.375-6.25,22.625,0s6.25,16.375,0,22.625l-12.346,12.344c8.234,11.555,13.936,24.988,16.393,39.539H368
		c8.836,0,16,7.164,16,16S376.836,336,368,336z"/>
</g>
<g>
</g>
<g>
</g>
<g>
</g>
<g>
</g>
<g>
</g>
<g>
</g>
<g>
</g>
<g>
</g>
<g>
</g>
<g>
</g>
<g>
</g>
<g>
</g>
<g>
</g>
<g>
</g>
<g>
</g>
</svg>
