<?xml version="1.0" encoding="iso-8859-1"?>
<!-- Generator: Adobe Illustrator 18.0.0, SVG Export Plug-In . SVG Version: 6.00 Build 0)  -->
<!DOCTYPE svg PUBLIC "-//W3C//DTD SVG 1.1//EN" "http://www.w3.org/Graphics/SVG/1.1/DTD/svg11.dtd">
<svg version="1.1" id="Capa_1" xmlns="http://www.w3.org/2000/svg" xmlns:xlink="http://www.w3.org/1999/xlink" x="0px" y="0px"
	 viewBox="0 0 512 512" style="enable-background:new 0 0 512 512;" xml:space="preserve">
<g>
	<path d="M224,352c35.289,0,64-28.711,64-64s-28.711-64-64-64s-64,28.711-64,64S188.711,352,224,352z"/>
	<path d="M0,464c0,17.672,14.327,32,32,32h448c17.674,0,32-14.328,32-32V144H0V464z M224,192c52.938,0,96,43.063,96,96
		c0,20.703-6.652,39.84-17.838,55.539l77.15,77.148c6.25,6.25,6.25,16.375,0,22.625C376.188,446.438,372.094,448,368,448
		c-4.094,0-8.188-1.563-11.313-4.688l-77.15-77.148C263.841,377.348,244.701,384,224,384c-52.938,0-96-43.063-96-96
		S171.063,192,224,192z"/>
	<path d="M480,16H32C14.327,16,0,30.328,0,48v64h512V48C512,30.328,497.674,16,480,16z M48,80c-8.836,0-16-7.164-16-16
		s7.164-16,16-16c8.837,0,16,7.164,16,16S56.837,80,48,80z M112,80c-8.836,0-16-7.164-16-16s7.164-16,16-16c8.837,0,16,7.164,16,16
		S120.837,80,112,80z M176,80c-8.836,0-16-7.164-16-16s7.164-16,16-16c8.837,0,16,7.164,16,16S184.837,80,176,80z"/>
</g>
<g>
</g>
<g>
</g>
<g>
</g>
<g>
</g>
<g>
</g>
<g>
</g>
<g>
</g>
<g>
</g>
<g>
</g>
<g>
</g>
<g>
</g>
<g>
</g>
<g>
</g>
<g>
</g>
<g>
</g>
</svg>
