<?xml version="1.0" encoding="iso-8859-1"?>
<!-- Generator: Adobe Illustrator 18.0.0, SVG Export Plug-In . SVG Version: 6.00 Build 0)  -->
<!DOCTYPE svg PUBLIC "-//W3C//DTD SVG 1.1//EN" "http://www.w3.org/Graphics/SVG/1.1/DTD/svg11.dtd">
<svg version="1.1" id="Capa_1" xmlns="http://www.w3.org/2000/svg" xmlns:xlink="http://www.w3.org/1999/xlink" x="0px" y="0px"
	 viewBox="0 0 512 512" style="enable-background:new 0 0 512 512;" xml:space="preserve">
<g>
	<path d="M480,80h-80V48c0-17.672-14.328-32-32-32c-17.672,0-32,14.328-32,32v32H176V48c0-17.672-14.328-32-32-32
		c-17.672,0-32,14.328-32,32v32H32C14.326,80,0,94.326,0,112v32h512v-32C512,94.326,497.674,80,480,80z"/>
	<path d="M0,464c0,17.674,14.326,32,32,32h448c17.674,0,32-14.326,32-32V176H0V464z M352,240h64v64h-64V240z M224,240h64v64h-64V240
		z M224,368h64v64h-64V368z M96,240h64v64H96V240z M96,368h64v64H96V368z"/>
</g>
<g>
</g>
<g>
</g>
<g>
</g>
<g>
</g>
<g>
</g>
<g>
</g>
<g>
</g>
<g>
</g>
<g>
</g>
<g>
</g>
<g>
</g>
<g>
</g>
<g>
</g>
<g>
</g>
<g>
</g>
</svg>
