<?xml version="1.0" encoding="iso-8859-1"?>
<!-- Generator: Adobe Illustrator 18.0.0, SVG Export Plug-In . SVG Version: 6.00 Build 0)  -->
<!DOCTYPE svg PUBLIC "-//W3C//DTD SVG 1.1//EN" "http://www.w3.org/Graphics/SVG/1.1/DTD/svg11.dtd">
<svg version="1.1" id="Capa_1" xmlns="http://www.w3.org/2000/svg" xmlns:xlink="http://www.w3.org/1999/xlink" x="0px" y="0px"
	 viewBox="0 0 512 512" style="enable-background:new 0 0 512 512;" xml:space="preserve">
<g>
	<path d="M447.465,149.387C442.055,83.672,387.109,32,320,32c-48.047,0-89.857,26.512-111.75,65.668
		C203.004,96.582,197.57,96,192,96c-33.766,0-62.502,20.984-74.242,50.57C110.754,144.945,103.494,144,96,144
		c-53.02,0-96,42.98-96,96s42.98,96,96,96h320c53.02,0,96-42.98,96-96C512,198.02,485.008,162.422,447.465,149.387z M384,176
		c-8.836,0-16-7.164-16-16c0-26.469-21.531-48-48-48c-8.836,0-16-7.164-16-16s7.164-16,16-16c44.109,0,80,35.891,80,80
		C400,168.836,392.836,176,384,176z"/>
	<path d="M240,464c0,8.84,7.164,16,16,16c8.836,0,16-7.16,16-16v-96h-32V464z"/>
	<path d="M176,416h-16c-8.836,0-16,7.164-16,16s7.164,16,16,16h32c8.836,0,16-7.164,16-16v-64h-32V416z"/>
	<path d="M352,416h-16v-48h-32v64c0,8.836,7.164,16,16,16h32c8.836,0,16-7.164,16-16S360.836,416,352,416z"/>
</g>
<g>
</g>
<g>
</g>
<g>
</g>
<g>
</g>
<g>
</g>
<g>
</g>
<g>
</g>
<g>
</g>
<g>
</g>
<g>
</g>
<g>
</g>
<g>
</g>
<g>
</g>
<g>
</g>
<g>
</g>
</svg>
