<?xml version="1.0" encoding="iso-8859-1"?>
<!-- Generator: Adobe Illustrator 18.0.0, SVG Export Plug-In . SVG Version: 6.00 Build 0)  -->
<!DOCTYPE svg PUBLIC "-//W3C//DTD SVG 1.1//EN" "http://www.w3.org/Graphics/SVG/1.1/DTD/svg11.dtd">
<svg version="1.1" id="Capa_1" xmlns="http://www.w3.org/2000/svg" xmlns:xlink="http://www.w3.org/1999/xlink" x="0px" y="0px"
	 viewBox="0 0 512 512" style="enable-background:new 0 0 512 512;" xml:space="preserve">
<g>
	<path d="M304,448h-16V32c0-17.672-14.324-32-32-32c-17.672,0-32,14.328-32,32v416h-16c-17.672,0-32,14.328-32,32v32h48h64h48v-32
		C336,462.328,321.675,448,304,448z"/>
	<path d="M509.316,119.125l-32-48C474.343,66.672,469.343,64,464,64H320v128h144c5.344,0,10.344-2.672,13.316-7.125l32-48
		C512.89,131.5,512.89,124.5,509.316,119.125z"/>
	<path d="M192,128H48c-5.344,0-10.344,2.672-13.313,7.125l-32,48c-3.578,5.375-3.578,12.375,0,17.75l32,48
		C37.656,253.328,42.656,256,48,256h144V128z"/>
</g>
<g>
</g>
<g>
</g>
<g>
</g>
<g>
</g>
<g>
</g>
<g>
</g>
<g>
</g>
<g>
</g>
<g>
</g>
<g>
</g>
<g>
</g>
<g>
</g>
<g>
</g>
<g>
</g>
<g>
</g>
</svg>
