<?xml version="1.0" encoding="iso-8859-1"?>
<!-- Generator: Adobe Illustrator 18.0.0, SVG Export Plug-In . SVG Version: 6.00 Build 0)  -->
<!DOCTYPE svg PUBLIC "-//W3C//DTD SVG 1.1//EN" "http://www.w3.org/Graphics/SVG/1.1/DTD/svg11.dtd">
<svg version="1.1" id="Capa_1" xmlns="http://www.w3.org/2000/svg" xmlns:xlink="http://www.w3.org/1999/xlink" x="0px" y="0px"
	 viewBox="0 0 512 512" style="enable-background:new 0 0 512 512;" xml:space="preserve">
<g>
	<path d="M320,0H96C78.406,0,64,14.406,64,32v448c0,17.594,14.406,32,32,32h320c17.594,0,32-14.406,32-32V128L320,0z M384,448H128
		V64h160v54.904C288,141.5,306.5,160,329.094,160H384V448z"/>
	<path d="M192,224c-17.672,0-32,14.328-32,32s14.328,32,32,32h128c17.672,0,32-14.328,32-32s-14.328-32-32-32H192z"/>
	<path d="M256,320h-64c-17.672,0-32,14.328-32,32s14.328,32,32,32h64c17.672,0,32-14.328,32-32S273.672,320,256,320z"/>
</g>
<g>
</g>
<g>
</g>
<g>
</g>
<g>
</g>
<g>
</g>
<g>
</g>
<g>
</g>
<g>
</g>
<g>
</g>
<g>
</g>
<g>
</g>
<g>
</g>
<g>
</g>
<g>
</g>
<g>
</g>
</svg>
