<?xml version="1.0" encoding="iso-8859-1"?>
<!-- Generator: Adobe Illustrator 18.0.0, SVG Export Plug-In . SVG Version: 6.00 Build 0)  -->
<!DOCTYPE svg PUBLIC "-//W3C//DTD SVG 1.1//EN" "http://www.w3.org/Graphics/SVG/1.1/DTD/svg11.dtd">
<svg version="1.1" id="Capa_1" xmlns="http://www.w3.org/2000/svg" xmlns:xlink="http://www.w3.org/1999/xlink" x="0px" y="0px"
	 viewBox="0 0 512 512" style="enable-background:new 0 0 512 512;" xml:space="preserve">
<path d="M480,304c-17.672,0-32,14.328-32,32c0,26.469-21.531,48-48,48h-65.18c30.48-33.984,49.18-78.754,49.18-128
	c0-106.039-85.961-192-192-192S0,149.961,0,256s85.961,192,192,192c5.402,0,10.711-0.371,16-0.809V448h192
	c61.75,0,112-50.25,112-112C512,318.328,497.672,304,480,304z M192,112c26.508,0,48,21.492,48,48s-21.492,48-48,48s-48-21.492-48-48
	S165.492,112,192,112z M208,256c0,8.836-7.164,16-16,16s-16-7.164-16-16s7.164-16,16-16S208,247.164,208,256z M96,304
	c-26.508,0-48-21.492-48-48s21.492-48,48-48s48,21.492,48,48S122.508,304,96,304z M192,400c-26.508,0-48-21.492-48-48
	s21.492-48,48-48s48,21.492,48,48S218.508,400,192,400z M288,304c-26.508,0-48-21.492-48-48s21.492-48,48-48s48,21.492,48,48
	S314.508,304,288,304z"/>
<g>
</g>
<g>
</g>
<g>
</g>
<g>
</g>
<g>
</g>
<g>
</g>
<g>
</g>
<g>
</g>
<g>
</g>
<g>
</g>
<g>
</g>
<g>
</g>
<g>
</g>
<g>
</g>
<g>
</g>
</svg>
