<?xml version="1.0" encoding="iso-8859-1"?>
<!-- Generator: Adobe Illustrator 18.0.0, SVG Export Plug-In . SVG Version: 6.00 Build 0)  -->
<!DOCTYPE svg PUBLIC "-//W3C//DTD SVG 1.1//EN" "http://www.w3.org/Graphics/SVG/1.1/DTD/svg11.dtd">
<svg version="1.1" id="Capa_1" xmlns="http://www.w3.org/2000/svg" xmlns:xlink="http://www.w3.org/1999/xlink" x="0px" y="0px"
	 viewBox="0 0 512 512" style="enable-background:new 0 0 512 512;" xml:space="preserve">
<g>
	<path d="M416,256c0,17.672,14.328,32,32,32s32-14.328,32-32c0-123.516-100.484-224-224-224S32,132.484,32,256
		c0,17.672,14.328,32,32,32s32-14.328,32-32c0-39.945,14.816-76.426,39.109-104.492l11.578,17.367
		c2.492,3.734,6.438,6.258,10.883,6.938c4.383,0.672,8.961-0.539,12.461-3.344c47.406-38.156,124.531-38.156,171.938,0
		C344.828,174.766,348.375,176,352,176c0.805,0,1.625-0.063,2.43-0.188c4.445-0.68,8.391-3.203,10.883-6.938l11.578-17.367
		C401.184,179.574,416,216.055,416,256z"/>
	<path d="M496,352h-16v-16c0-8.836-7.164-16-16-16h-48c-17.672,0-32,14.328-32,32v96c0,17.672,14.328,32,32,32h48
		c8.836,0,16-7.164,16-16v-16h16c8.836,0,16-7.164,16-16v-64C512,359.164,504.836,352,496,352z"/>
	<path d="M96,320H48c-8.836,0-16,7.164-16,16v16H16c-8.836,0-16,7.164-16,16v64c0,8.836,7.164,16,16,16h16v16
		c0,8.836,7.164,16,16,16h48c17.672,0,32-14.328,32-32v-96C128,334.328,113.672,320,96,320z"/>
</g>
<g>
</g>
<g>
</g>
<g>
</g>
<g>
</g>
<g>
</g>
<g>
</g>
<g>
</g>
<g>
</g>
<g>
</g>
<g>
</g>
<g>
</g>
<g>
</g>
<g>
</g>
<g>
</g>
<g>
</g>
</svg>
