<?xml version="1.0" encoding="iso-8859-1"?>
<!-- Generator: Adobe Illustrator 18.0.0, SVG Export Plug-In . SVG Version: 6.00 Build 0)  -->
<!DOCTYPE svg PUBLIC "-//W3C//DTD SVG 1.1//EN" "http://www.w3.org/Graphics/SVG/1.1/DTD/svg11.dtd">
<svg version="1.1" id="Capa_1" xmlns="http://www.w3.org/2000/svg" xmlns:xlink="http://www.w3.org/1999/xlink" x="0px" y="0px"
	 viewBox="0 0 512 512" style="enable-background:new 0 0 512 512;" xml:space="preserve">
<g>
	<path d="M224,32L112,176v160l112,144c0,17.672,14.328,32,32,32l0,0c17.673,0,32-14.327,32-32V32c0-17.673-14.327-32-32-32l0,0
		C238.328,0,224,14.328,224,32z"/>
	<path d="M0,208v96c0,17.672,14.328,32,32,32h48V176H32C14.328,176,0,190.328,0,208z"/>
	<path d="M452.078,91.406c-11.359-13.516-31.547-15.281-45.094-3.906c-13.516,11.375-15.281,31.563-3.906,45.094
		C432.047,167.063,448,210.891,448,256s-15.953,88.938-44.922,123.406c-11.375,13.531-9.609,33.719,3.906,45.094
		c6,5.047,13.313,7.5,20.578,7.5c9.125,0,18.188-3.875,24.516-11.406C490.719,374.594,512,316.156,512,256
		C512,195.844,490.719,137.406,452.078,91.406z"/>
	<path d="M361.141,121.625c-12.375-12.656-32.656-12.844-45.25-0.469c-12.625,12.375-12.828,32.641-0.469,45.25
		C339.016,190.484,352,222.297,352,256s-13,65.531-36.609,89.625c-12.359,12.609-12.156,32.875,0.469,45.25
		c6.219,6.094,14.313,9.141,22.391,9.141c8.297,0,16.594-3.203,22.859-9.609C396.5,354.297,416,306.563,416,256
		S396.516,157.719,361.141,121.625z"/>
</g>
<g>
</g>
<g>
</g>
<g>
</g>
<g>
</g>
<g>
</g>
<g>
</g>
<g>
</g>
<g>
</g>
<g>
</g>
<g>
</g>
<g>
</g>
<g>
</g>
<g>
</g>
<g>
</g>
<g>
</g>
</svg>
