<?xml version="1.0" encoding="iso-8859-1"?>
<!-- Generator: Adobe Illustrator 18.0.0, SVG Export Plug-In . SVG Version: 6.00 Build 0)  -->
<!DOCTYPE svg PUBLIC "-//W3C//DTD SVG 1.1//EN" "http://www.w3.org/Graphics/SVG/1.1/DTD/svg11.dtd">
<svg version="1.1" id="Capa_1" xmlns="http://www.w3.org/2000/svg" xmlns:xlink="http://www.w3.org/1999/xlink" x="0px" y="0px"
	 viewBox="0 0 512 512" style="enable-background:new 0 0 512 512;" xml:space="preserve">
<path d="M494.359,163.255L271.847,36.216c-9.844-5.621-21.926-5.621-31.77,0L17.589,163.302
	C3.046,171.607-4.239,189.63,2.578,204.919c5.254,11.793,16.513,18.66,28.234,19.082C36.569,224.212,64,223.997,64,223.997v224
	C64,465.673,78.228,480,95.914,480h64.039C177.636,480,192,465.673,192,447.998V288h128v159.998C320,465.673,334.39,480,352.074,480
	h64.041C433.799,480,448,465.673,448,447.998V224c0,0,26.746,0,32.125,0c11.949,0,23.537-6.697,29.074-18.533
	C516.395,190.085,509.113,171.681,494.359,163.255z M256.176,191.997c-17.672,0-32-14.324-32-32c0-17.672,14.328-32,32-32
	s32,14.328,32,32C288.176,177.673,273.847,191.997,256.176,191.997z"/>
<g>
</g>
<g>
</g>
<g>
</g>
<g>
</g>
<g>
</g>
<g>
</g>
<g>
</g>
<g>
</g>
<g>
</g>
<g>
</g>
<g>
</g>
<g>
</g>
<g>
</g>
<g>
</g>
<g>
</g>
</svg>
