<?xml version="1.0" encoding="iso-8859-1"?>
<!-- Generator: Adobe Illustrator 18.0.0, SVG Export Plug-In . SVG Version: 6.00 Build 0)  -->
<!DOCTYPE svg PUBLIC "-//W3C//DTD SVG 1.1//EN" "http://www.w3.org/Graphics/SVG/1.1/DTD/svg11.dtd">
<svg version="1.1" id="Capa_1" xmlns="http://www.w3.org/2000/svg" xmlns:xlink="http://www.w3.org/1999/xlink" x="0px" y="0px"
	 viewBox="0 0 512 512" style="enable-background:new 0 0 512 512;" xml:space="preserve">
<g>
	<path d="M336,112H48c-8.836,0-16,7.164-16,16v352c0,17.672,14.326,32,32,32h256c17.674,0,32-14.328,32-32V128
		C352,119.164,344.836,112,336,112z"/>
	<path d="M192,80c8.844,0,16-7.164,16-16V16c0-8.836-7.156-16-16-16c-8.844,0-16,7.164-16,16v48C176,72.836,183.156,80,192,80z"/>
	<path d="M256,80c8.844,0,16-7.164,16-16V48c0-8.836-7.156-16-16-16c-8.844,0-16,7.164-16,16v16C240,72.836,247.156,80,256,80z"/>
	<path d="M128,80c8.844,0,16-7.164,16-16V48c0-8.836-7.156-16-16-16c-8.844,0-16,7.164-16,16v16C112,72.836,119.156,80,128,80z"/>
	<path d="M384,176v64c17.641,0,32,14.352,32,32v64c0,17.648-14.359,32-32,32v64c52.938,0,96-43.063,96-96v-64
		C480,219.063,436.938,176,384,176z"/>
</g>
<g>
</g>
<g>
</g>
<g>
</g>
<g>
</g>
<g>
</g>
<g>
</g>
<g>
</g>
<g>
</g>
<g>
</g>
<g>
</g>
<g>
</g>
<g>
</g>
<g>
</g>
<g>
</g>
<g>
</g>
</svg>
