<?xml version="1.0" encoding="iso-8859-1"?>
<!-- Generator: Adobe Illustrator 18.0.0, SVG Export Plug-In . SVG Version: 6.00 Build 0)  -->
<!DOCTYPE svg PUBLIC "-//W3C//DTD SVG 1.1//EN" "http://www.w3.org/Graphics/SVG/1.1/DTD/svg11.dtd">
<svg version="1.1" id="Capa_1" xmlns="http://www.w3.org/2000/svg" xmlns:xlink="http://www.w3.org/1999/xlink" x="0px" y="0px"
	 viewBox="0 0 512 512" style="enable-background:new 0 0 512 512;" xml:space="preserve">
<g>
	<path d="M448.016,448H416V320c0-4.172-0.844-8.313-2.461-12.219c-1.625-3.938-3.965-7.484-6.934-10.438L365.264,256l41.345-41.344
		c2.969-2.953,5.305-6.5,6.93-10.438C415.156,200.313,416,196.172,416,192V64h32.016c17.672,0,32-14.313,32-32s-14.328-32-32-32
		H63.984c-17.672,0-32,14.313-32,32s14.328,32,32,32H96v128c0,4.172,0.859,8.313,2.477,12.219c1.625,3.938,3.973,7.484,6.941,10.438
		L146.764,256l-41.343,41.344c-2.969,2.953-5.32,6.5-6.945,10.438C96.859,311.688,96,315.828,96,320v128H63.984
		c-17.672,0-32,14.313-32,32s14.328,32,32,32h384.031c17.672,0,32-14.313,32-32S465.688,448,448.016,448z M214.629,233.375
		L160,178.75V64h192v114.75l-54.617,54.625c-12.5,12.5-12.504,32.75-0.004,45.25L352,333.25V384l-96-96l-96,96v-50.75l54.633-54.625
		C227.133,266.125,227.129,245.875,214.629,233.375z"/>
	<polygon points="320.016,160 192.016,160 256.016,224 	"/>
</g>
<g>
</g>
<g>
</g>
<g>
</g>
<g>
</g>
<g>
</g>
<g>
</g>
<g>
</g>
<g>
</g>
<g>
</g>
<g>
</g>
<g>
</g>
<g>
</g>
<g>
</g>
<g>
</g>
<g>
</g>
</svg>
