<?xml version="1.0" encoding="iso-8859-1"?>
<!-- Generator: Adobe Illustrator 18.0.0, SVG Export Plug-In . SVG Version: 6.00 Build 0)  -->
<!DOCTYPE svg PUBLIC "-//W3C//DTD SVG 1.1//EN" "http://www.w3.org/Graphics/SVG/1.1/DTD/svg11.dtd">
<svg version="1.1" id="Capa_1" xmlns="http://www.w3.org/2000/svg" xmlns:xlink="http://www.w3.org/1999/xlink" x="0px" y="0px"
	 viewBox="0 0 512 512" style="enable-background:new 0 0 512 512;" xml:space="preserve">
<g>
	<path d="M480,32H32C14.327,32,0,46.327,0,64v320v64c0,17.673,14.327,32,32,32h448c17.673,0,32-14.327,32-32v-64V64
		C512,46.327,497.673,32,480,32z M448,320h-80c-17.673,0-32,14.327-32,32v32H176v-32c0-17.673-14.327-32-32-32H64V96h384V320z"/>
	<path d="M144,288h224c17.673,0,32-14.327,32-32s-14.327-32-32-32H144c-17.673,0-32,14.327-32,32S126.327,288,144,288z"/>
	<path d="M144,192h224c17.673,0,32-14.327,32-32s-14.327-32-32-32H144c-17.673,0-32,14.327-32,32S126.327,192,144,192z"/>
</g>
<g>
</g>
<g>
</g>
<g>
</g>
<g>
</g>
<g>
</g>
<g>
</g>
<g>
</g>
<g>
</g>
<g>
</g>
<g>
</g>
<g>
</g>
<g>
</g>
<g>
</g>
<g>
</g>
<g>
</g>
</svg>
