<?xml version="1.0" encoding="iso-8859-1"?>
<!-- Generator: Adobe Illustrator 18.0.0, SVG Export Plug-In . SVG Version: 6.00 Build 0)  -->
<!DOCTYPE svg PUBLIC "-//W3C//DTD SVG 1.1//EN" "http://www.w3.org/Graphics/SVG/1.1/DTD/svg11.dtd">
<svg version="1.1" id="Capa_1" xmlns="http://www.w3.org/2000/svg" xmlns:xlink="http://www.w3.org/1999/xlink" x="0px" y="0px"
	 viewBox="0 0 512 512" style="enable-background:new 0 0 512 512;" xml:space="preserve">
<g>
	<path d="M384,0c-70.578,0-128,57.422-128,128s57.422,128,128,128s128-57.422,128-128S454.578,0,384,0z M384,192
		c-35.297,0-64-28.711-64-64s28.703-64,64-64s64,28.711,64,64S419.297,192,384,192z"/>
	<path d="M294.625,262.625l-45.25-45.25l-48,48l-192,192c-12.5,12.492-12.5,32.758,0,45.25C15.625,508.875,23.813,512,32,512
		s16.375-3.125,22.625-9.375L96,461.25l41.375,41.375c6.25,6.25,14.438,9.375,22.625,9.375s16.375-3.125,22.625-9.375
		c12.5-12.492,12.5-32.758,0-45.25L141.25,416L176,381.25l25.375,25.375c6.25,6.25,14.438,9.375,22.625,9.375
		s16.375-3.125,22.625-9.375c12.5-12.492,12.5-32.758,0-45.25L221.25,336l25.375-25.375L294.625,262.625z"/>
</g>
<g>
</g>
<g>
</g>
<g>
</g>
<g>
</g>
<g>
</g>
<g>
</g>
<g>
</g>
<g>
</g>
<g>
</g>
<g>
</g>
<g>
</g>
<g>
</g>
<g>
</g>
<g>
</g>
<g>
</g>
</svg>
