<?xml version="1.0" encoding="iso-8859-1"?>
<!-- Generator: Adobe Illustrator 18.0.0, SVG Export Plug-In . SVG Version: 6.00 Build 0)  -->
<!DOCTYPE svg PUBLIC "-//W3C//DTD SVG 1.1//EN" "http://www.w3.org/Graphics/SVG/1.1/DTD/svg11.dtd">
<svg version="1.1" id="Capa_1" xmlns="http://www.w3.org/2000/svg" xmlns:xlink="http://www.w3.org/1999/xlink" x="0px" y="0px"
	 viewBox="0 0 512.002 512.002" style="enable-background:new 0 0 512.002 512.002;" xml:space="preserve">
<g>
	<path d="M256.001,0c-70.564,0-128,57.42-128,128c0,17.67,14.313,32,32,32s32-14.33,32-32c0-35.295,28.688-64,64-64s64,28.705,64,64
		v96c0,35.295-28.689,64-64,64h-32v64h32c70.564,0,128-57.42,128-128v-96C384.001,57.42,326.565,0,256.001,0z"/>
	<path d="M352.001,352c-17.686,0-32,14.33-32,32.002c0,35.293-28.689,64-64,64s-64-28.707-64-64V288c0-35.295,28.688-64,64-64h32
		v-64h-32c-70.564,0-128,57.42-128,128v96.002c0,70.578,57.436,128,128,128s128-57.422,128-128
		C384.001,366.33,369.688,352,352.001,352z"/>
</g>
<g>
</g>
<g>
</g>
<g>
</g>
<g>
</g>
<g>
</g>
<g>
</g>
<g>
</g>
<g>
</g>
<g>
</g>
<g>
</g>
<g>
</g>
<g>
</g>
<g>
</g>
<g>
</g>
<g>
</g>
</svg>
