<?xml version="1.0" encoding="iso-8859-1"?>
<!-- Generator: Adobe Illustrator 18.0.0, SVG Export Plug-In . SVG Version: 6.00 Build 0)  -->
<!DOCTYPE svg PUBLIC "-//W3C//DTD SVG 1.1//EN" "http://www.w3.org/Graphics/SVG/1.1/DTD/svg11.dtd">
<svg version="1.1" id="Capa_1" xmlns="http://www.w3.org/2000/svg" xmlns:xlink="http://www.w3.org/1999/xlink" x="0px" y="0px"
	 viewBox="0 0 512.002 512.002" style="enable-background:new 0 0 512.002 512.002;" xml:space="preserve">
<g>
	<path d="M176.001,32c0-17.674-14.326-32-32-32h-64c-17.673,0-32,14.326-32,32v64h128V32z"/>
	<path d="M336.001,304c0,44.109-35.891,80.002-80,80.002s-80-35.893-80-80.002V128h-128v176c0,114.697,93.305,208.002,208,208.002
		s208-93.305,208-208.002V128h-128V304z"/>
	<path d="M432.001,0h-64c-17.674,0-32,14.326-32,32v64h128V32C464.001,14.326,449.675,0,432.001,0z"/>
</g>
<g>
</g>
<g>
</g>
<g>
</g>
<g>
</g>
<g>
</g>
<g>
</g>
<g>
</g>
<g>
</g>
<g>
</g>
<g>
</g>
<g>
</g>
<g>
</g>
<g>
</g>
<g>
</g>
<g>
</g>
</svg>
