<?xml version="1.0" encoding="iso-8859-1"?>
<!-- Generator: Adobe Illustrator 18.0.0, SVG Export Plug-In . SVG Version: 6.00 Build 0)  -->
<!DOCTYPE svg PUBLIC "-//W3C//DTD SVG 1.1//EN" "http://www.w3.org/Graphics/SVG/1.1/DTD/svg11.dtd">
<svg version="1.1" id="Capa_1" xmlns="http://www.w3.org/2000/svg" xmlns:xlink="http://www.w3.org/1999/xlink" x="0px" y="0px"
	 viewBox="0 0 512 512" style="enable-background:new 0 0 512 512;" xml:space="preserve">
<g>
	<path d="M448,0c-17.674,0-32,14.328-32,32L256,160v160l160,128c0,17.676,14.326,32,32,32l0,0c17.673,0,32-14.327,32-32V32
		C480,14.327,465.673,0,448,0L448,0z"/>
	<path d="M32,192v96c0,17.676,14.326,32,32,32h160V160H64C46.326,160,32,174.328,32,192z"/>
	<path d="M161.689,451.387c-1.111-2.223-1.689-4.672-1.689-7.156V352H96v144c0,8.84,7.164,16,16,16h48c8.836,0,16-7.16,16-16
		v-12.223c0-2.484-0.578-4.934-1.689-7.156L161.689,451.387z"/>
</g>
<g>
</g>
<g>
</g>
<g>
</g>
<g>
</g>
<g>
</g>
<g>
</g>
<g>
</g>
<g>
</g>
<g>
</g>
<g>
</g>
<g>
</g>
<g>
</g>
<g>
</g>
<g>
</g>
<g>
</g>
</svg>
