<?xml version="1.0" encoding="iso-8859-1"?>
<!-- Generator: Adobe Illustrator 18.0.0, SVG Export Plug-In . SVG Version: 6.00 Build 0)  -->
<!DOCTYPE svg PUBLIC "-//W3C//DTD SVG 1.1//EN" "http://www.w3.org/Graphics/SVG/1.1/DTD/svg11.dtd">
<svg version="1.1" id="Capa_1" xmlns="http://www.w3.org/2000/svg" xmlns:xlink="http://www.w3.org/1999/xlink" x="0px" y="0px"
	 viewBox="0 0 512 512" style="enable-background:new 0 0 512 512;" xml:space="preserve">
<path d="M384,148.699V128C384,57.422,326.578,0,256,0S128,57.422,128,128v112c0,26.469-21.531,48-48,48c-17.672,0-32,14.328-32,32
	s14.328,32,32,32c61.75,0,112-50.242,112-112V128c0-35.289,28.703-64,64-64s64,28.711,64,64v20.699
	c-46.25,13.775-80,56.572-80,107.301v144c0,61.855,50.141,112,112,112s112-50.145,112-112V256
	C464,205.271,430.25,162.475,384,148.699z M352,288c-17.672,0-32-14.327-32-32c0-17.674,14.328-32,32-32s32,14.326,32,32
	C384,273.673,369.672,288,352,288z"/>
<g>
</g>
<g>
</g>
<g>
</g>
<g>
</g>
<g>
</g>
<g>
</g>
<g>
</g>
<g>
</g>
<g>
</g>
<g>
</g>
<g>
</g>
<g>
</g>
<g>
</g>
<g>
</g>
<g>
</g>
</svg>
