<?xml version="1.0" encoding="iso-8859-1"?>
<!-- Generator: Adobe Illustrator 18.0.0, SVG Export Plug-In . SVG Version: 6.00 Build 0)  -->
<!DOCTYPE svg PUBLIC "-//W3C//DTD SVG 1.1//EN" "http://www.w3.org/Graphics/SVG/1.1/DTD/svg11.dtd">
<svg version="1.1" id="Capa_1" xmlns="http://www.w3.org/2000/svg" xmlns:xlink="http://www.w3.org/1999/xlink" x="0px" y="0px"
	 viewBox="0 0 512 512" style="enable-background:new 0 0 512 512;" xml:space="preserve">
<g>
	<path d="M32,352c0,17.672,14.328,32,32,32h160v32h-32c-8.836,0-16,7.164-16,16h-64c-17.672,0-32,14.328-32,32s14.328,32,32,32h64
		c0,8.836,7.164,16,16,16h128c8.836,0,16-7.164,16-16h64c17.672,0,32-14.328,32-32s-14.328-32-32-32h-64c0-8.836-7.164-16-16-16h-32
		v-32h160c17.672,0,32-14.328,32-32V160H32V352z"/>
	<path d="M448,64H272c-16.977,0-33.25-6.742-45.258-18.746l-26.508-26.508C188.234,6.742,171.953,0,154.984,0H64
		C46.328,0,32,14.326,32,32v96h448V96C480,78.326,465.672,64,448,64z"/>
</g>
<g>
</g>
<g>
</g>
<g>
</g>
<g>
</g>
<g>
</g>
<g>
</g>
<g>
</g>
<g>
</g>
<g>
</g>
<g>
</g>
<g>
</g>
<g>
</g>
<g>
</g>
<g>
</g>
<g>
</g>
</svg>
