<?xml version="1.0" encoding="iso-8859-1"?>
<!-- Generator: Adobe Illustrator 18.0.0, SVG Export Plug-In . SVG Version: 6.00 Build 0)  -->
<!DOCTYPE svg PUBLIC "-//W3C//DTD SVG 1.1//EN" "http://www.w3.org/Graphics/SVG/1.1/DTD/svg11.dtd">
<svg version="1.1" id="Capa_1" xmlns="http://www.w3.org/2000/svg" xmlns:xlink="http://www.w3.org/1999/xlink" x="0px" y="0px"
	 viewBox="0 0 512 512" style="enable-background:new 0 0 512 512;" xml:space="preserve">
<path d="M480,0H160c-17.688,0-32,14.328-32,32v224H32c-17.688,0-32,14.328-32,32v128c0,52.938,43.063,96,96,96h320
	c52.938,0,96-43.063,96-96V32C512,14.328,497.688,0,480,0z M128,416c0,17.641-14.344,32-32,32c-17.656,0-32-14.359-32-32v-96h64V416
	z M288,80h64c17.688,0,32,14.328,32,32s-14.313,32-32,32h-64c-17.688,0-32-14.328-32-32S270.313,80,288,80z M416,336H224
	c-17.688,0-32-14.328-32-32s14.313-32,32-32h192c17.688,0,32,14.328,32,32S433.688,336,416,336z M416,240H224
	c-17.688,0-32-14.328-32-32s14.313-32,32-32h192c17.688,0,32,14.328,32,32S433.688,240,416,240z"/>
<g>
</g>
<g>
</g>
<g>
</g>
<g>
</g>
<g>
</g>
<g>
</g>
<g>
</g>
<g>
</g>
<g>
</g>
<g>
</g>
<g>
</g>
<g>
</g>
<g>
</g>
<g>
</g>
<g>
</g>
</svg>
