<?xml version="1.0" encoding="iso-8859-1"?>
<!-- Generator: Adobe Illustrator 18.0.0, SVG Export Plug-In . SVG Version: 6.00 Build 0)  -->
<!DOCTYPE svg PUBLIC "-//W3C//DTD SVG 1.1//EN" "http://www.w3.org/Graphics/SVG/1.1/DTD/svg11.dtd">
<svg version="1.1" id="Capa_1" xmlns="http://www.w3.org/2000/svg" xmlns:xlink="http://www.w3.org/1999/xlink" x="0px" y="0px"
	 viewBox="0 0 512 512" style="enable-background:new 0 0 512 512;" xml:space="preserve">
<g>
	<path d="M192,64c-17.672,0-32,14.328-32,32v64H32c-17.672,0-32,14.328-32,32s14.328,32,32,32h160c17.672,0,32-14.328,32-32V96
		C224,78.328,209.672,64,192,64z"/>
	<path d="M320,224h160c17.672,0,32-14.328,32-32s-14.328-32-32-32H352V96c0-17.672-14.328-32-32-32s-32,14.328-32,32v96
		C288,209.672,302.328,224,320,224z"/>
	<path d="M480,288H320c-17.672,0-32,14.328-32,32v96c0,17.672,14.328,32,32,32s32-14.328,32-32v-64h128c17.672,0,32-14.328,32-32
		S497.672,288,480,288z"/>
	<path d="M192,288H32c-17.672,0-32,14.328-32,32s14.328,32,32,32h128v64c0,17.672,14.328,32,32,32s32-14.328,32-32v-96
		C224,302.328,209.672,288,192,288z"/>
</g>
<g>
</g>
<g>
</g>
<g>
</g>
<g>
</g>
<g>
</g>
<g>
</g>
<g>
</g>
<g>
</g>
<g>
</g>
<g>
</g>
<g>
</g>
<g>
</g>
<g>
</g>
<g>
</g>
<g>
</g>
</svg>
