<?xml version="1.0" encoding="iso-8859-1"?>
<!-- Generator: Adobe Illustrator 18.0.0, SVG Export Plug-In . SVG Version: 6.00 Build 0)  -->
<!DOCTYPE svg PUBLIC "-//W3C//DTD SVG 1.1//EN" "http://www.w3.org/Graphics/SVG/1.1/DTD/svg11.dtd">
<svg version="1.1" id="Capa_1" xmlns="http://www.w3.org/2000/svg" xmlns:xlink="http://www.w3.org/1999/xlink" x="0px" y="0px"
	 viewBox="0 0 512 512" style="enable-background:new 0 0 512 512;" xml:space="preserve">
<g>
	<path d="M512,143.789c0-12.799-7.625-24.35-19.391-29.376l-224-95.9c-8.063-3.434-17.156-3.434-25.219,0l-224.008,95.9
		C7.617,119.439,0,130.99,0,143.789v95.9v31.967v191.8c0,17.576,14.391,32.607,31.984,32.607h448
		c17.594,0,32.016-15.031,32.016-32.607V271.734c0-0.027,0-0.051,0-0.078V143.789z M255.984,336.931
		c-3.094,0-6.195-0.439-9.18-1.342L64,264.556v-99.695l192.008-82.196L448,164.861v99.689l-182.828,71.039
		C262.188,336.492,259.078,336.931,255.984,336.931z"/>
	<polygon points="96,208.063 96,239.689 256,303.622 416,239.689 416,208.063 	"/>
</g>
<g>
</g>
<g>
</g>
<g>
</g>
<g>
</g>
<g>
</g>
<g>
</g>
<g>
</g>
<g>
</g>
<g>
</g>
<g>
</g>
<g>
</g>
<g>
</g>
<g>
</g>
<g>
</g>
<g>
</g>
</svg>
