<?xml version="1.0" encoding="iso-8859-1"?>
<!-- Generator: Adobe Illustrator 18.0.0, SVG Export Plug-In . SVG Version: 6.00 Build 0)  -->
<!DOCTYPE svg PUBLIC "-//W3C//DTD SVG 1.1//EN" "http://www.w3.org/Graphics/SVG/1.1/DTD/svg11.dtd">
<svg version="1.1" id="Capa_1" xmlns="http://www.w3.org/2000/svg" xmlns:xlink="http://www.w3.org/1999/xlink" x="0px" y="0px"
	 viewBox="0 0 512 512" style="enable-background:new 0 0 512 512;" xml:space="preserve">
<g>
	<path d="M240,0c-17.672,0-32,14.328-32,32s14.328,32,32,32c114.688,0,208,93.313,208,208c0,17.672,14.328,32,32,32
		c17.672,0,32-14.328,32-32C512,122.016,389.984,0,240,0z"/>
	<path d="M352,272c0,17.672,14.328,32,32,32c17.672,0,32-14.328,32-32c0-97.047-78.953-176-176-176c-17.672,0-32,14.328-32,32
		s14.328,32,32,32C301.75,160,352,210.25,352,272z"/>
	<path d="M416,368h-32c-22.055,0-43.391-2.984-63.672-8.531c-9.438-2.578-19.523-1.109-27.344,4.766l-46.586,34.969
		c-57.438-29.281-104.477-76.164-133.602-133.766l34.953-46.555c5.883-7.844,7.344-17.938,4.75-27.391
		c-5.531-20.18-8.5-41.477-8.5-63.492V96c0-17.602-14.336-32-38.547-32H64C28.516,64-0.047,93.047,0,128.523
		C0.281,340.109,171.891,511.719,383.477,512C418.953,512.047,448,483.477,448,448v-48C448,382.398,433.602,368,416,368z"/>
</g>
<g>
</g>
<g>
</g>
<g>
</g>
<g>
</g>
<g>
</g>
<g>
</g>
<g>
</g>
<g>
</g>
<g>
</g>
<g>
</g>
<g>
</g>
<g>
</g>
<g>
</g>
<g>
</g>
<g>
</g>
</svg>
