<?xml version="1.0" encoding="iso-8859-1"?>
<!-- Generator: Adobe Illustrator 18.0.0, SVG Export Plug-In . SVG Version: 6.00 Build 0)  -->
<!DOCTYPE svg PUBLIC "-//W3C//DTD SVG 1.1//EN" "http://www.w3.org/Graphics/SVG/1.1/DTD/svg11.dtd">
<svg version="1.1" id="Capa_1" xmlns="http://www.w3.org/2000/svg" xmlns:xlink="http://www.w3.org/1999/xlink" x="0px" y="0px"
	 viewBox="0 0 512 512" style="enable-background:new 0 0 512 512;" xml:space="preserve">
<path d="M256,0C167.773,0,96,74.648,96,166.406c0,119.922,127.555,322.195,132.984,330.75C234.859,506.398,245.047,512,256,512
	s21.141-5.602,27.016-14.844C288.445,488.602,416,286.328,416,166.406C416,74.648,344.227,0,256,0z M256,230.374
	c-35.344,0-64-28.563-64-63.935c0-35.376,28.656-64.065,64-64.065c35.376,0,64,28.688,64,64.065
	C320,201.811,291.376,230.374,256,230.374z"/>
<g>
</g>
<g>
</g>
<g>
</g>
<g>
</g>
<g>
</g>
<g>
</g>
<g>
</g>
<g>
</g>
<g>
</g>
<g>
</g>
<g>
</g>
<g>
</g>
<g>
</g>
<g>
</g>
<g>
</g>
</svg>
