<?xml version="1.0" encoding="iso-8859-1"?>
<!-- Generator: Adobe Illustrator 18.0.0, SVG Export Plug-In . SVG Version: 6.00 Build 0)  -->
<!DOCTYPE svg PUBLIC "-//W3C//DTD SVG 1.1//EN" "http://www.w3.org/Graphics/SVG/1.1/DTD/svg11.dtd">
<svg version="1.1" id="Capa_1" xmlns="http://www.w3.org/2000/svg" xmlns:xlink="http://www.w3.org/1999/xlink" x="0px" y="0px"
	 viewBox="0 0 512 512" style="enable-background:new 0 0 512 512;" xml:space="preserve">
<g>
	<path d="M384,448H128c-17.672,0-32,14.328-32,32s14.328,32,32,32h256c17.672,0,32-14.328,32-32S401.672,448,384,448z"/>
	<path d="M256,416c10.391,0,20.133-5.047,26.125-13.523C294.195,385.414,400,233.016,400,137.602C400,61.727,335.398,0,256,0
		S112,61.727,112,137.602c0,95.414,105.805,247.813,117.875,264.875C235.867,410.953,245.609,416,256,416z M208,144.048
		C208,117.516,229.492,96,256,96c26.532,0,48,21.516,48,48.048C304,170.577,282.532,192,256,192
		C229.492,192,208,170.577,208,144.048z"/>
</g>
<g>
</g>
<g>
</g>
<g>
</g>
<g>
</g>
<g>
</g>
<g>
</g>
<g>
</g>
<g>
</g>
<g>
</g>
<g>
</g>
<g>
</g>
<g>
</g>
<g>
</g>
<g>
</g>
<g>
</g>
</svg>
