<?xml version="1.0" encoding="iso-8859-1"?>
<!-- Generator: Adobe Illustrator 18.0.0, SVG Export Plug-In . SVG Version: 6.00 Build 0)  -->
<!DOCTYPE svg PUBLIC "-//W3C//DTD SVG 1.1//EN" "http://www.w3.org/Graphics/SVG/1.1/DTD/svg11.dtd">
<svg version="1.1" id="Capa_1" xmlns="http://www.w3.org/2000/svg" xmlns:xlink="http://www.w3.org/1999/xlink" x="0px" y="0px"
	 viewBox="0 0 512 512" style="enable-background:new 0 0 512 512;" xml:space="preserve">
<path d="M416,0H96C78.328,0,64,14.326,64,32v448c0,17.673,14.328,32,32,32h274.742c8.488,0,16.625-3.371,22.629-9.372l45.254-45.256
	c6.004-6.001,9.375-14.141,9.375-22.628V32C448,14.326,433.672,0,416,0z M288,400h-48v48h-64v-48h-48v-64h48v-48h64v48h48V400z
	 M352,448c-17.672,0-32-14.327-32-32c0-17.674,14.328-32,32-32s32,14.326,32,32C384,433.673,369.672,448,352,448z M352,352
	c-17.672,0-32-14.327-32-32c0-17.674,14.328-32,32-32s32,14.326,32,32C384,337.673,369.672,352,352,352z M384,224H128V64h256V224z"
	/>
<g>
</g>
<g>
</g>
<g>
</g>
<g>
</g>
<g>
</g>
<g>
</g>
<g>
</g>
<g>
</g>
<g>
</g>
<g>
</g>
<g>
</g>
<g>
</g>
<g>
</g>
<g>
</g>
<g>
</g>
</svg>
