<?xml version="1.0" encoding="iso-8859-1"?>
<!-- Generator: Adobe Illustrator 18.0.0, SVG Export Plug-In . SVG Version: 6.00 Build 0)  -->
<!DOCTYPE svg PUBLIC "-//W3C//DTD SVG 1.1//EN" "http://www.w3.org/Graphics/SVG/1.1/DTD/svg11.dtd">
<svg version="1.1" id="Capa_1" xmlns="http://www.w3.org/2000/svg" xmlns:xlink="http://www.w3.org/1999/xlink" x="0px" y="0px"
	 viewBox="0 0 512 512" style="enable-background:new 0 0 512 512;" xml:space="preserve">
<path d="M504.078,234.93L403.145,118.148C390.988,104.084,373.315,96,354.723,96H32c-17.672,0-32,14.326-32,32v256
	c0,17.672,14.328,32,32,32h322.723c18.592,0,36.266-8.084,48.422-22.15L504.078,277.07
	C514.641,265.008,514.641,246.992,504.078,234.93z M144,304c0,17.672-14.328,32-32,32s-32-14.328-32-32v-96
	c0-17.674,14.328-32,32-32s32,14.326,32,32V304z M240,304c0,17.672-14.328,32-32,32s-32-14.328-32-32v-96c0-17.674,14.328-32,32-32
	s32,14.326,32,32V304z M400,288c-17.672,0-32-14.328-32-32c0-17.674,14.328-32,32-32s32,14.326,32,32
	C432,273.672,417.672,288,400,288z"/>
<g>
</g>
<g>
</g>
<g>
</g>
<g>
</g>
<g>
</g>
<g>
</g>
<g>
</g>
<g>
</g>
<g>
</g>
<g>
</g>
<g>
</g>
<g>
</g>
<g>
</g>
<g>
</g>
<g>
</g>
</svg>
