<?xml version="1.0" encoding="iso-8859-1"?>
<!-- Generator: Adobe Illustrator 18.0.0, SVG Export Plug-In . SVG Version: 6.00 Build 0)  -->
<!DOCTYPE svg PUBLIC "-//W3C//DTD SVG 1.1//EN" "http://www.w3.org/Graphics/SVG/1.1/DTD/svg11.dtd">
<svg version="1.1" id="Capa_1" xmlns="http://www.w3.org/2000/svg" xmlns:xlink="http://www.w3.org/1999/xlink" x="0px" y="0px"
	 viewBox="0 0 512 512" style="enable-background:new 0 0 512 512;" xml:space="preserve">
<g>
	<path d="M96,484c0,15.376,14.406,28,32,28h256c17.594,0,32-12.624,32-28V320H96V484z"/>
	<path d="M416,28c0-15.376-14.406-28-32-28H128c-17.594,0-32,12.624-32,28v68h320V28z"/>
	<path d="M480,128H32c-17.602,0-32,14.398-32,32v192c0,17.6,14.398,32,32,32h32v-96h384v96h32c17.602,0,32-14.4,32-32V160
		C512,142.398,497.602,128,480,128z M352,240c-17.688,0-32-14.311-32-32s14.313-32,32-32s32,14.311,32,32S369.688,240,352,240z
		 M448,240c-17.688,0-32-14.311-32-32s14.313-32,32-32s32,14.311,32,32S465.688,240,448,240z"/>
</g>
<g>
</g>
<g>
</g>
<g>
</g>
<g>
</g>
<g>
</g>
<g>
</g>
<g>
</g>
<g>
</g>
<g>
</g>
<g>
</g>
<g>
</g>
<g>
</g>
<g>
</g>
<g>
</g>
<g>
</g>
</svg>
