<?xml version="1.0" encoding="iso-8859-1"?>
<!-- Generator: Adobe Illustrator 18.0.0, SVG Export Plug-In . SVG Version: 6.00 Build 0)  -->
<!DOCTYPE svg PUBLIC "-//W3C//DTD SVG 1.1//EN" "http://www.w3.org/Graphics/SVG/1.1/DTD/svg11.dtd">
<svg version="1.1" id="Capa_1" xmlns="http://www.w3.org/2000/svg" xmlns:xlink="http://www.w3.org/1999/xlink" x="0px" y="0px"
	 viewBox="0 0 512 512" style="enable-background:new 0 0 512 512;" xml:space="preserve">
<g>
	<path d="M410.242,267.203L320,192V64c17.672,0,32-14.328,32-32S337.672,0,320,0H192c-17.672,0-32,14.328-32,32s14.328,32,32,32v128
		l-90.242,75.203C98.109,270.242,96,274.746,96,279.492V288c0,8.836,7.164,16,16,16h288c8.836,0,16-7.164,16-16v-8.508
		C416,274.746,413.891,270.242,410.242,267.203z"/>
	<path d="M224,336v144c0,4.242,1.688,8.313,4.688,11.313l16,16C247.813,510.438,251.906,512,256,512
		c4.094,0,8.188-1.563,11.313-4.688l16-16c3-3,4.688-7.07,4.688-11.313V336H224z"/>
</g>
<g>
</g>
<g>
</g>
<g>
</g>
<g>
</g>
<g>
</g>
<g>
</g>
<g>
</g>
<g>
</g>
<g>
</g>
<g>
</g>
<g>
</g>
<g>
</g>
<g>
</g>
<g>
</g>
<g>
</g>
</svg>
