<?xml version="1.0" encoding="iso-8859-1"?>
<!-- Generator: Adobe Illustrator 18.0.0, SVG Export Plug-In . SVG Version: 6.00 Build 0)  -->
<!DOCTYPE svg PUBLIC "-//W3C//DTD SVG 1.1//EN" "http://www.w3.org/Graphics/SVG/1.1/DTD/svg11.dtd">
<svg version="1.1" id="Capa_1" xmlns="http://www.w3.org/2000/svg" xmlns:xlink="http://www.w3.org/1999/xlink" x="0px" y="0px"
	 viewBox="0 0 512.003 512.003" style="enable-background:new 0 0 512.003 512.003;" xml:space="preserve">
<path d="M480.014,128.003h-201.25l150.22-66.76c16.156-7.172,23.406-26.076,16.25-42.231c-7.156-16.125-26.062-23.44-42.249-16.237
	L121.212,128.003h-89.19c-0.005,0-0.011,0-0.016,0c-0.005,0-0.01,0-0.016,0c-17.687,0-31.989,14.337-31.989,32.008v159.997v159.997
	c0,17.672,14.302,31.998,31.989,31.998h447.992c17.687,0,32.019-14.326,32.019-31.998V321.245c0-0.411,0-0.822,0-1.236V160.011
	C512.002,142.34,497.701,128.003,480.014,128.003z M415.983,416.007c-17.686,0-32-14.313-32-31.999s14.314-32,32-32
	c17.686,0,31.999,14.314,31.999,32S433.67,416.007,415.983,416.007z M448.002,288.003h-256v-32h-0.014
	c-0.002-18-14.312-31.994-31.999-31.994c-17.689,0-31.999,14.311-31.999,32c0,0.171,0.01,0.339,0.013,0.509v31.485h-64v-96h63.584
	c0.145,0,0.289,0.016,0.434,0.016c0.202,0,0.405-0.016,0.608-0.016h319.374V288.003z"/>
<g>
</g>
<g>
</g>
<g>
</g>
<g>
</g>
<g>
</g>
<g>
</g>
<g>
</g>
<g>
</g>
<g>
</g>
<g>
</g>
<g>
</g>
<g>
</g>
<g>
</g>
<g>
</g>
<g>
</g>
</svg>
