<?xml version="1.0" encoding="iso-8859-1"?>
<!-- Generator: Adobe Illustrator 18.0.0, SVG Export Plug-In . SVG Version: 6.00 Build 0)  -->
<!DOCTYPE svg PUBLIC "-//W3C//DTD SVG 1.1//EN" "http://www.w3.org/Graphics/SVG/1.1/DTD/svg11.dtd">
<svg version="1.1" id="Capa_1" xmlns="http://www.w3.org/2000/svg" xmlns:xlink="http://www.w3.org/1999/xlink" x="0px" y="0px"
	 viewBox="0 0 512 512" style="enable-background:new 0 0 512 512;" xml:space="preserve">
<path d="M416,319.998c-25.333,0-48.337,9.934-65.51,26.02l-37.873-69.921c1.469-1.799,2.925-3.622,4.008-5.786l96-192
	c7.667-15.333-17.377-67.945-29.391-74.453c-15.547-8.391-34.953-2.633-43.375,12.899L256,171.573L172.141,16.755
	c-8.422-15.531-27.828-21.289-43.375-12.899c-12.014,6.508-37.058,59.12-29.391,74.453l96,192c1.083,2.164,2.539,3.987,4.008,5.786
	l-37.873,69.921c-17.173-16.086-40.177-26.02-65.51-26.02c-52.938,0-96,43.063-96,96s43.063,96,96,96
	c49.915,0,81.331-40.195,95.547-87.046C201.37,392.578,256,305.961,256,305.961s54.63,86.616,64.453,118.99
	c14.216,46.851,45.632,87.046,95.547,87.046c52.938,0,96-43.063,96-96S468.938,319.998,416,319.998z M96,447.998
	c-17.641,0-32-14.352-32-32c0-17.648,14.359-32,32-32s32,14.352,32,32C128,433.646,113.641,447.998,96,447.998z M416,447.998
	c-17.641,0-32-14.352-32-32c0-17.648,14.359-32,32-32s32,14.352,32,32C448,433.646,433.641,447.998,416,447.998z"/>
<g>
</g>
<g>
</g>
<g>
</g>
<g>
</g>
<g>
</g>
<g>
</g>
<g>
</g>
<g>
</g>
<g>
</g>
<g>
</g>
<g>
</g>
<g>
</g>
<g>
</g>
<g>
</g>
<g>
</g>
</svg>
