<?xml version="1.0" encoding="iso-8859-1"?>
<!-- Generator: Adobe Illustrator 18.0.0, SVG Export Plug-In . SVG Version: 6.00 Build 0)  -->
<!DOCTYPE svg PUBLIC "-//W3C//DTD SVG 1.1//EN" "http://www.w3.org/Graphics/SVG/1.1/DTD/svg11.dtd">
<svg version="1.1" id="Capa_1" xmlns="http://www.w3.org/2000/svg" xmlns:xlink="http://www.w3.org/1999/xlink" x="0px" y="0px"
	 viewBox="0 0 512 512" style="enable-background:new 0 0 512 512;" xml:space="preserve">
<g>
	<path d="M485.52,0h-448C19.848,0,0,8.807,0,26.48v320C0,364.152,19.848,381,37.52,381H231v30h-17.48c-8.836,0-16,10-16,20h-80
		c-17.672,0-32,12.328-32,30s14.328,30,32,30h80c0,10,7.164,21,16,21h96c8.836,0,16-11,16-21h80c17.672,0,32-12.328,32-30
		s-14.328-30-32-30h-80c0-10-7.164-20-16-20H292v-30h193.52c17.672,0,26.48-16.848,26.48-34.52v-320C512,8.807,503.191,0,485.52,0z
		 M452,311H71v-91h381V311z M452,150H71V60h381V150z"/>
</g>
<g>
	<g>
		<circle cx="299" cy="107" r="32"/>
		<circle cx="395" cy="107" r="32"/>
	</g>
	<g>
		<circle cx="299" cy="267" r="32"/>
		<circle cx="395" cy="267" r="32"/>
	</g>
</g>
<g>
</g>
<g>
</g>
<g>
</g>
<g>
</g>
<g>
</g>
<g>
</g>
<g>
</g>
<g>
</g>
<g>
</g>
<g>
</g>
<g>
</g>
<g>
</g>
<g>
</g>
<g>
</g>
<g>
</g>
</svg>
