<?xml version="1.0" encoding="iso-8859-1"?>
<!-- Generator: Adobe Illustrator 18.0.0, SVG Export Plug-In . SVG Version: 6.00 Build 0)  -->
<!DOCTYPE svg PUBLIC "-//W3C//DTD SVG 1.1//EN" "http://www.w3.org/Graphics/SVG/1.1/DTD/svg11.dtd">
<svg version="1.1" id="Capa_1" xmlns="http://www.w3.org/2000/svg" xmlns:xlink="http://www.w3.org/1999/xlink" x="0px" y="0px"
	 viewBox="0 0 512 512" style="enable-background:new 0 0 512 512;" xml:space="preserve">
<g>
	<path d="M256,208.023c-26.469,0-48,21.533-48,48.005s21.531,48.005,48,48.005c26.469,0,48-21.533,48-48.005
		S282.469,208.023,256,208.023z"/>
	<path d="M480,223l-35.818,0.095c-4.912-29.1-16.318-55.966-32.787-79.078l25.621-23.768c13.746-13.74,12.375-36.879-4.109-48.743
		c-12.941-9.313-31.094-6.559-42.367,4.715L367.07,99.692C343.963,83.218,317,71.815,288,66.9V33.721
		c0-15.943-10.891-30.718-26.625-33.281C259.557,0.145,257.762,0,256,0c-17.672,0.001-32,14.333-32,32.006V66.9
		c-29,4.914-55.963,16.318-79.07,32.792c0,0-13.176-13.177-23.484-23.487c-11.273-11.275-29.41-14.013-42.352-4.7
		c-16.484,11.864-17.855,35.003-4.109,48.743l24.693,24.685C83.207,168.046,71.805,195,66.891,224H33.715
		c-15.939,0-30.715,10.889-33.277,26.624C-2.824,270.673,12.567,288,32,288h34.891c4.914,29,16.316,55.982,32.787,79.094
		c0.002,0-13.01,13.021-23.271,23.284c-12.062,12.064-14.234,31.843-3.148,44.813c6.41,7.493,15.387,11.245,24.351,11.245
		c8.188,0,16.383-3.124,22.625-9.375L144,411.324C167.11,427.794,193.973,439,223.071,444c0.002,0,0.002,0,0.002,0L223,479.937
		C223,497.61,237.328,512,255,512s32-14.305,32-31.978l0.072-35.81c29.1-4.911,55.963-16.311,79.072-32.781l25.621,25.627
		c6.242,6.251,14.437,9.378,22.625,9.378c8.965,0,17.941-3.749,24.352-11.242c11.086-12.97,8.898-32.76-3.166-44.824l-24.182-24.186
		c16.469-23.112,27.875-49.978,32.787-79.082C444.18,287.101,480,287,480,287c17.672,0,32-14.326,32-32S497.672,223,480,223z
		 M256,352.037c-52.937,0-96-43.067-96-96.009s43.063-96.009,96-96.009s96,43.067,96,96.009S308.938,352.037,256,352.037z"/>
</g>
<g>
</g>
<g>
</g>
<g>
</g>
<g>
</g>
<g>
</g>
<g>
</g>
<g>
</g>
<g>
</g>
<g>
</g>
<g>
</g>
<g>
</g>
<g>
</g>
<g>
</g>
<g>
</g>
<g>
</g>
</svg>
