<?xml version="1.0" encoding="iso-8859-1"?>
<!-- Generator: Adobe Illustrator 18.0.0, SVG Export Plug-In . SVG Version: 6.00 Build 0)  -->
<!DOCTYPE svg PUBLIC "-//W3C//DTD SVG 1.1//EN" "http://www.w3.org/Graphics/SVG/1.1/DTD/svg11.dtd">
<svg version="1.1" id="Capa_1" xmlns="http://www.w3.org/2000/svg" xmlns:xlink="http://www.w3.org/1999/xlink" x="0px" y="0px"
	 viewBox="0 0 512 512" style="enable-background:new 0 0 512 512;" xml:space="preserve">
<g>
	<path d="M192,368c-35.297,0-64,28.703-64,64c0,35.297,28.703,64,64,64c35.297,0,64-28.703,64-64
		C256.001,396.703,227.297,368,192,368z"/>
	<path d="M416.001,368c-35.297,0-64,28.703-64,64c0,35.297,28.703,64,64,64c35.297,0,64-28.703,64-64
		C480.001,396.703,451.298,368,416.001,368z"/>
	<path d="M504.423,91.312C498.345,84.14,489.407,80,480.001,80H152.985l-9.938-39.766c-0.188-0.742-0.523-1.391-0.758-2.102
		c-0.367-1.125-0.711-2.242-1.195-3.305c-0.414-0.914-0.93-1.758-1.422-2.625c-0.531-0.93-1.047-1.859-1.664-2.734
		c-0.602-0.844-1.289-1.602-1.961-2.375c-0.68-0.781-1.336-1.555-2.078-2.266c-0.75-0.703-1.555-1.313-2.359-1.945
		c-0.813-0.633-1.609-1.273-2.477-1.828c-0.883-0.563-1.813-1.016-2.742-1.492c-0.891-0.453-1.766-0.914-2.703-1.289
		c-1.078-0.422-2.188-0.719-3.305-1.023c-0.859-0.234-1.695-0.5-2.586-0.664c-1.297-0.242-2.633-0.32-3.969-0.398
		C113.211,16.148,112.625,16,112,16H32C14.328,16,0,30.328,0,48s14.328,32,32,32h55.016l9.641,38.578l31.781,190.688
		C131,324.687,144.36,336,160,336h288.001c15.641,0,29-11.313,31.563-26.734l32-192C513.111,107.984,510.501,98.5,504.423,91.312z
		 M224,272c0,8.844-7.156,16-16,16s-16-7.156-16-16v-112c0-8.844,7.156-16,16-16s16,7.156,16,16V272z M288,272
		c0,8.844-7.156,16-16,16s-16-7.156-16-16v-112c0-8.844,7.156-16,16-16s16,7.156,16,16V272z M352,272c0,8.844-7.156,16-16,16
		s-16-7.156-16-16v-112c0-8.844,7.156-16,16-16s16,7.156,16,16V272z M416,272c0,8.844-7.156,16-16,16s-16-7.156-16-16v-112
		c0-8.844,7.156-16,16-16s16,7.156,16,16V272z"/>
</g>
<g>
</g>
<g>
</g>
<g>
</g>
<g>
</g>
<g>
</g>
<g>
</g>
<g>
</g>
<g>
</g>
<g>
</g>
<g>
</g>
<g>
</g>
<g>
</g>
<g>
</g>
<g>
</g>
<g>
</g>
</svg>
