<?xml version="1.0" encoding="iso-8859-1"?>
<!-- Generator: Adobe Illustrator 18.0.0, SVG Export Plug-In . SVG Version: 6.00 Build 0)  -->
<!DOCTYPE svg PUBLIC "-//W3C//DTD SVG 1.1//EN" "http://www.w3.org/Graphics/SVG/1.1/DTD/svg11.dtd">
<svg version="1.1" id="Capa_1" xmlns="http://www.w3.org/2000/svg" xmlns:xlink="http://www.w3.org/1999/xlink" x="0px" y="0px"
	 viewBox="0 0 512 512" style="enable-background:new 0 0 512 512;" xml:space="preserve">
<g>
	<circle cx="256" cy="256" r="64"/>
	<path d="M480,224h-2.556C463.344,126.109,385.891,48.656,288,34.555V32c0-17.672-14.328-32-32-32s-32,14.328-32,32v2.555
		C126.109,48.656,48.656,126.109,34.556,224H32c-17.672,0-32,14.328-32,32s14.328,32,32,32h2.556
		C48.656,385.891,126.109,463.344,224,477.445V480c0,17.672,14.328,32,32,32s32-14.328,32-32v-2.555
		C385.891,463.344,463.344,385.891,477.444,288H480c17.672,0,32-14.328,32-32S497.672,224,480,224z M288,412.773V384
		c0-17.672-14.328-32-32-32s-32,14.328-32,32v28.773C161.4,400.016,111.982,350.594,99.225,288H128c17.672,0,32-14.328,32-32
		s-14.328-32-32-32H99.225C111.982,161.406,161.4,111.984,224,99.227V128c0,17.672,14.328,32,32,32s32-14.328,32-32V99.227
		c62.6,12.758,112.018,62.18,124.775,124.773H384c-17.672,0-32,14.328-32,32s14.328,32,32,32h28.775
		C400.018,350.594,350.6,400.016,288,412.773z"/>
</g>
<g>
</g>
<g>
</g>
<g>
</g>
<g>
</g>
<g>
</g>
<g>
</g>
<g>
</g>
<g>
</g>
<g>
</g>
<g>
</g>
<g>
</g>
<g>
</g>
<g>
</g>
<g>
</g>
<g>
</g>
</svg>
