<?xml version="1.0" encoding="iso-8859-1"?>
<!-- Generator: Adobe Illustrator 18.0.0, SVG Export Plug-In . SVG Version: 6.00 Build 0)  -->
<!DOCTYPE svg PUBLIC "-//W3C//DTD SVG 1.1//EN" "http://www.w3.org/Graphics/SVG/1.1/DTD/svg11.dtd">
<svg version="1.1" id="Capa_1" xmlns="http://www.w3.org/2000/svg" xmlns:xlink="http://www.w3.org/1999/xlink" x="0px" y="0px"
	 viewBox="0 0 512 512" style="enable-background:new 0 0 512 512;" xml:space="preserve">
<path d="M480,144h-96c0-17.674-14.328-32-32-32h-34.75l57.375-57.375c12.5-12.492,12.5-32.758,0-45.25
	c-12.5-12.5-32.75-12.5-45.25,0L256,82.75L182.625,9.375c-12.5-12.5-32.75-12.5-45.25,0c-12.5,12.492-12.5,32.758,0,45.25
	L194.75,112H160c-17.672,0-32,14.326-32,32H32c-17.672,0-32,14.326-32,32v304c0,17.673,14.328,32,32,32h448
	c17.672,0,32-14.327,32-32V176C512,158.326,497.672,144,480,144z M384,448H64V208h320V448z M448,448c-17.672,0-32-14.328-32-32
	c0-17.674,14.328-32,32-32s32,14.326,32,32C480,433.672,465.672,448,448,448z M448,352c-17.672,0-32-14.328-32-32
	c0-17.674,14.328-32,32-32s32,14.326,32,32C480,337.672,465.672,352,448,352z"/>
<g>
</g>
<g>
</g>
<g>
</g>
<g>
</g>
<g>
</g>
<g>
</g>
<g>
</g>
<g>
</g>
<g>
</g>
<g>
</g>
<g>
</g>
<g>
</g>
<g>
</g>
<g>
</g>
<g>
</g>
</svg>
