<?xml version="1.0" encoding="iso-8859-1"?>
<!-- Generator: Adobe Illustrator 18.0.0, SVG Export Plug-In . SVG Version: 6.00 Build 0)  -->
<!DOCTYPE svg PUBLIC "-//W3C//DTD SVG 1.1//EN" "http://www.w3.org/Graphics/SVG/1.1/DTD/svg11.dtd">
<svg version="1.1" id="Capa_1" xmlns="http://www.w3.org/2000/svg" xmlns:xlink="http://www.w3.org/1999/xlink" x="0px" y="0px"
	 viewBox="0 0 512 512" style="enable-background:new 0 0 512 512;" xml:space="preserve">
<path d="M496,192h-16c-8.836,0-16,7.164-16,16v16l-48,32h-32v-15.414c0-8.164-3.117-16.016-8.719-21.953l-45.809-48.586
	C323.43,163.635,315.004,160,306.191,160H304V96c0-17.672-14.328-32-32-32H112c-17.672,0-32,14.328-32,32s14.328,32,32,32h128v32H32
	c-17.672,0-32,14.326-32,32v224c0,17.672,14.328,32,32,32h320c17.672,0,32-14.328,32-32v-32h32l48,32v16c0,8.836,7.164,16,16,16h16
	c8.836,0,16-7.164,16-16V208C512,199.164,504.836,192,496,192z M288,384H64v-96h224V384z"/>
<g>
</g>
<g>
</g>
<g>
</g>
<g>
</g>
<g>
</g>
<g>
</g>
<g>
</g>
<g>
</g>
<g>
</g>
<g>
</g>
<g>
</g>
<g>
</g>
<g>
</g>
<g>
</g>
<g>
</g>
</svg>
