<?xml version="1.0" encoding="iso-8859-1"?>
<!-- Generator: Adobe Illustrator 18.0.0, SVG Export Plug-In . SVG Version: 6.00 Build 0)  -->
<!DOCTYPE svg PUBLIC "-//W3C//DTD SVG 1.1//EN" "http://www.w3.org/Graphics/SVG/1.1/DTD/svg11.dtd">
<svg version="1.1" id="Capa_1" xmlns="http://www.w3.org/2000/svg" xmlns:xlink="http://www.w3.org/1999/xlink" x="0px" y="0px"
	 viewBox="0 0 512 512" style="enable-background:new 0 0 512 512;" xml:space="preserve">
<g>
	<path d="M224,32L112,176v160l112,144c0,17.672,14.328,32,32,32l0,0c17.673,0,32-14.327,32-32V32c0-17.673-14.327-32-32-32l0,0
		C238.328,0,224,14.328,224,32z"/>
	<path d="M0,208v96c0,17.672,14.328,32,32,32h48V176H32C14.328,176,0,190.328,0,208z"/>
	<path d="M477.25,256l25.375-25.375c12.5-12.5,12.5-32.75,0-45.25s-32.75-12.5-45.25,0L432,210.75l-25.375-25.375
		c-12.5-12.5-32.75-12.5-45.25,0s-12.5,32.75,0,45.25L386.75,256l-25.375,25.375c-12.5,12.5-12.5,32.75,0,45.25
		c6.25,6.25,14.438,9.375,22.625,9.375s16.375-3.125,22.625-9.375L432,301.25l25.375,25.375c6.25,6.25,14.438,9.375,22.625,9.375
		s16.375-3.125,22.625-9.375c12.5-12.5,12.5-32.75,0-45.25L477.25,256z"/>
</g>
<g>
</g>
<g>
</g>
<g>
</g>
<g>
</g>
<g>
</g>
<g>
</g>
<g>
</g>
<g>
</g>
<g>
</g>
<g>
</g>
<g>
</g>
<g>
</g>
<g>
</g>
<g>
</g>
<g>
</g>
</svg>
